<?xml version="1.0" encoding="UTF-8" standalone="no"?>
<svg
   xmlns:dc="http://purl.org/dc/elements/1.1/"
   xmlns:cc="http://creativecommons.org/ns#"
   xmlns:rdf="http://www.w3.org/1999/02/22-rdf-syntax-ns#"
   xmlns:svg="http://www.w3.org/2000/svg"
   xmlns="http://www.w3.org/2000/svg"
   viewBox="0 0 1206.4805 412.30966"
   height="412.30966"
   width="1206.4805"
   xml:space="preserve"
   id="svg9123"
   version="1.1"><metadata
     id="metadata9129"><rdf:RDF><cc:Work
         rdf:about=""><dc:format>image/svg+xml</dc:format><dc:type
           rdf:resource="http://purl.org/dc/dcmitype/StillImage" /><dc:title></dc:title></cc:Work></rdf:RDF></metadata><defs
     id="defs9127"><clipPath
       id="clipPath9143"
       clipPathUnits="userSpaceOnUse"><path
         id="path9141"
         d="m 42.766,3.625 h 837 v 277.199 h -837 z" /></clipPath><clipPath
       id="clipPath9151"
       clipPathUnits="userSpaceOnUse"><path
         id="path9149"
         d="M 0,0 H 905 V 310 H 0 Z" /></clipPath><clipPath
       id="clipPath9315"
       clipPathUnits="userSpaceOnUse"><path
         id="path9313"
         d="m 42.766,3.625 h 837 v 277.199 h -837 z" /></clipPath><clipPath
       id="clipPath9325"
       clipPathUnits="userSpaceOnUse"><path
         id="path9323"
         d="M 0,0 H 905 V 310 H 0 Z" /></clipPath><clipPath
       id="clipPath9341"
       clipPathUnits="userSpaceOnUse"><path
         id="path9339"
         d="M 0,0 H 905 V 310 H 0 Z" /></clipPath><clipPath
       id="clipPath9395"
       clipPathUnits="userSpaceOnUse"><path
         id="path9393"
         d="m 42.766,3.625 h 837 v 277.199 h -837 z" /></clipPath><clipPath
       id="clipPath9405"
       clipPathUnits="userSpaceOnUse"><path
         id="path9403"
         d="M 0,0 H 905 V 310 H 0 Z" /></clipPath><clipPath
       id="clipPath9429"
       clipPathUnits="userSpaceOnUse"><path
         id="path9427"
         d="m 42.766,3.625 h 837 v 277.199 h -837 z" /></clipPath><clipPath
       id="clipPath9439"
       clipPathUnits="userSpaceOnUse"><path
         id="path9437"
         d="M 0,0 H 905 V 310 H 0 Z" /></clipPath><clipPath
       id="clipPath9463"
       clipPathUnits="userSpaceOnUse"><path
         id="path9461"
         d="m 42.766,3.625 h 837 v 277.199 h -837 z" /></clipPath><clipPath
       id="clipPath9473"
       clipPathUnits="userSpaceOnUse"><path
         id="path9471"
         d="M 0,0 H 905 V 310 H 0 Z" /></clipPath><clipPath
       id="clipPath9497"
       clipPathUnits="userSpaceOnUse"><path
         id="path9495"
         d="m 42.766,3.625 h 837 v 277.199 h -837 z" /></clipPath><clipPath
       id="clipPath9507"
       clipPathUnits="userSpaceOnUse"><path
         id="path9505"
         d="M 0,0 H 905 V 310 H 0 Z" /></clipPath><clipPath
       id="clipPath9531"
       clipPathUnits="userSpaceOnUse"><path
         id="path9529"
         d="m 42.766,3.625 h 837 v 277.199 h -837 z" /></clipPath><clipPath
       id="clipPath9541"
       clipPathUnits="userSpaceOnUse"><path
         id="path9539"
         d="M 0,0 H 905 V 310 H 0 Z" /></clipPath><clipPath
       id="clipPath9565"
       clipPathUnits="userSpaceOnUse"><path
         id="path9563"
         d="m 42.766,3.625 h 837 v 277.199 h -837 z" /></clipPath><clipPath
       id="clipPath9575"
       clipPathUnits="userSpaceOnUse"><path
         id="path9573"
         d="M 0,0 H 905 V 310 H 0 Z" /></clipPath><clipPath
       id="clipPath9603"
       clipPathUnits="userSpaceOnUse"><path
         id="path9601"
         d="m 42.766,3.625 h 837 v 277.199 h -837 z" /></clipPath><clipPath
       id="clipPath9613"
       clipPathUnits="userSpaceOnUse"><path
         id="path9611"
         d="M 0,0 H 905 V 310 H 0 Z" /></clipPath></defs><g
     transform="matrix(1.3333333,0,0,1.3333333,0,8.3077413e-6)"
     id="g9131"><g
       id="g9133"><path
         id="path9135"
         style="fill:#ffffff;fill-opacity:1;fill-rule:nonzero;stroke:none"
         d="m 42.766,3.625 h 837 v 277.199 h -837 z" /></g><g
       id="g9137"><g
         clip-path="url(#clipPath9143)"
         id="g9139"><g
           id="g9145"><g
             id="g9147" /><g
             id="g9163"><g
               id="g9161"
               clip-path="url(#clipPath9151)"><g
                 id="g9159"><path
                   id="path9153"
                   style="fill:#c0c0c0;fill-opacity:0.4;fill-rule:nonzero;stroke:none"
                   d="M 80.813,268.227 V 167.426 h 5.105 v -50.403 h 30.641 V 66.625 h 15.32 V 16.227 h 709.84 v 252 z" /><g
                   id="g9157"
                   transform="scale(1,-1)"><path
                     id="path9155"
                     style="fill:none;stroke:#c0c0c0;stroke-width:1;stroke-linecap:butt;stroke-linejoin:round;stroke-miterlimit:10;stroke-dasharray:none;stroke-opacity:0.4"
                     d="m 80.813,-268.227 v 100.801 h 5.105 v 50.403 h 30.641 v 50.398 h 15.32 v 50.398 h 709.84 v -252 z" /></g></g></g></g></g></g></g><g
       id="g9165"><g
         transform="scale(1,-1)"
         id="g9167"><path
           id="path9169"
           style="fill:none;stroke:#000000;stroke-width:0.80000001;stroke-linecap:butt;stroke-linejoin:round;stroke-miterlimit:10;stroke-dasharray:none;stroke-opacity:1"
           d="m 80.813,-280.824 v -3.5" /></g><text
         id="text9173"
         style="font-variant:normal;font-weight:normal;font-size:10px;font-family:'DejaVu Sans';-inkscape-font-specification:DejaVuSans;writing-mode:lr-tb;fill:#000000;fill-opacity:1;fill-rule:nonzero;stroke:none"
         transform="translate(77.631396,295.41874)"><tspan
           id="tspan9171"
           y="0"
           x="0">0</tspan></text>
<g
         transform="scale(1,-1)"
         id="g9175"><path
           id="path9177"
           style="fill:none;stroke:#000000;stroke-width:0.80000001;stroke-linecap:butt;stroke-linejoin:round;stroke-miterlimit:10;stroke-dasharray:none;stroke-opacity:1"
           d="m 182.945,-280.824 v -3.5" /></g><text
         id="text9181"
         style="font-variant:normal;font-weight:normal;font-size:10px;font-family:'DejaVu Sans';-inkscape-font-specification:DejaVuSans;writing-mode:lr-tb;fill:#000000;fill-opacity:1;fill-rule:nonzero;stroke:none"
         transform="translate(176.58715,295.41874)"><tspan
           id="tspan9179"
           y="0"
           x="0 6.3600001">20</tspan></text>
<g
         transform="scale(1,-1)"
         id="g9183"><path
           id="path9185"
           style="fill:none;stroke:#000000;stroke-width:0.80000001;stroke-linecap:butt;stroke-linejoin:round;stroke-miterlimit:10;stroke-dasharray:none;stroke-opacity:1"
           d="m 285.082,-280.824 v -3.5" /></g><text
         id="text9189"
         style="font-variant:normal;font-weight:normal;font-size:10px;font-family:'DejaVu Sans';-inkscape-font-specification:DejaVuSans;writing-mode:lr-tb;fill:#000000;fill-opacity:1;fill-rule:nonzero;stroke:none"
         transform="translate(278.7226,295.41874)"><tspan
           id="tspan9187"
           y="0"
           x="0 6.3600001">40</tspan></text>
<g
         transform="scale(1,-1)"
         id="g9191"><path
           id="path9193"
           style="fill:none;stroke:#000000;stroke-width:0.80000001;stroke-linecap:butt;stroke-linejoin:round;stroke-miterlimit:10;stroke-dasharray:none;stroke-opacity:1"
           d="m 387.219,-280.824 v -3.5" /></g><text
         id="text9197"
         style="font-variant:normal;font-weight:normal;font-size:10px;font-family:'DejaVu Sans';-inkscape-font-specification:DejaVuSans;writing-mode:lr-tb;fill:#000000;fill-opacity:1;fill-rule:nonzero;stroke:none"
         transform="translate(380.85804,295.41874)"><tspan
           id="tspan9195"
           y="0"
           x="0 6.3600001">60</tspan></text>
<g
         transform="scale(1,-1)"
         id="g9199"><path
           id="path9201"
           style="fill:none;stroke:#000000;stroke-width:0.80000001;stroke-linecap:butt;stroke-linejoin:round;stroke-miterlimit:10;stroke-dasharray:none;stroke-opacity:1"
           d="m 489.352,-280.824 v -3.5" /></g><text
         id="text9205"
         style="font-variant:normal;font-weight:normal;font-size:10px;font-family:'DejaVu Sans';-inkscape-font-specification:DejaVuSans;writing-mode:lr-tb;fill:#000000;fill-opacity:1;fill-rule:nonzero;stroke:none"
         transform="translate(482.99349,295.41874)"><tspan
           id="tspan9203"
           y="0"
           x="0 6.3600001">80</tspan></text>
<g
         transform="scale(1,-1)"
         id="g9207"><path
           id="path9209"
           style="fill:none;stroke:#000000;stroke-width:0.80000001;stroke-linecap:butt;stroke-linejoin:round;stroke-miterlimit:10;stroke-dasharray:none;stroke-opacity:1"
           d="m 591.488,-280.824 v -3.5" /></g><text
         id="text9213"
         style="font-variant:normal;font-weight:normal;font-size:10px;font-family:'DejaVu Sans';-inkscape-font-specification:DejaVuSans;writing-mode:lr-tb;fill:#000000;fill-opacity:1;fill-rule:nonzero;stroke:none"
         transform="translate(581.94924,295.41874)"><tspan
           id="tspan9211"
           y="0"
           x="0 6.3600001 12.72">100</tspan></text>
<g
         transform="scale(1,-1)"
         id="g9215"><path
           id="path9217"
           style="fill:none;stroke:#000000;stroke-width:0.80000001;stroke-linecap:butt;stroke-linejoin:round;stroke-miterlimit:10;stroke-dasharray:none;stroke-opacity:1"
           d="m 693.625,-280.824 v -3.5" /></g><text
         id="text9221"
         style="font-variant:normal;font-weight:normal;font-size:10px;font-family:'DejaVu Sans';-inkscape-font-specification:DejaVuSans;writing-mode:lr-tb;fill:#000000;fill-opacity:1;fill-rule:nonzero;stroke:none"
         transform="translate(684.08469,295.41874)"><tspan
           id="tspan9219"
           y="0"
           x="0 6.3600001 12.72">120</tspan></text>
<g
         transform="scale(1,-1)"
         id="g9223"><path
           id="path9225"
           style="fill:none;stroke:#000000;stroke-width:0.80000001;stroke-linecap:butt;stroke-linejoin:round;stroke-miterlimit:10;stroke-dasharray:none;stroke-opacity:1"
           d="m 795.758,-280.824 v -3.5" /></g><text
         id="text9231"
         style="font-variant:normal;font-weight:normal;font-size:10px;font-family:'DejaVu Sans';-inkscape-font-specification:DejaVuSans;writing-mode:lr-tb;fill:#000000;fill-opacity:1;fill-rule:nonzero;stroke:none"
         transform="translate(786.22014,295.41874)"><tspan
           id="tspan9227"
           y="0"
           x="0 6.3600001 12.72">140</tspan><tspan
           id="tspan9229"
           y="13.67188"
           x="-346.17328 -343.23328 -339.31329 -333.16327 -329.05328 -322.93329 -319.01328 -316.24329 -310.13327">Iteration</tspan></text>
<g
         transform="scale(1,-1)"
         id="g9233"><path
           id="path9235"
           style="fill:none;stroke:#000000;stroke-width:0.80000001;stroke-linecap:butt;stroke-linejoin:round;stroke-miterlimit:10;stroke-dasharray:none;stroke-opacity:1"
           d="m 42.766,-280.824 h -3.5" /></g><text
         id="text9239"
         style="font-variant:normal;font-weight:normal;font-size:10px;font-family:'DejaVu Sans';-inkscape-font-specification:DejaVuSans;writing-mode:lr-tb;fill:#000000;fill-opacity:1;fill-rule:nonzero;stroke:none"
         transform="translate(13.500007,284.62187)"><tspan
           id="tspan9237"
           y="0"
           x="0 6.3600001 9.5299997 15.89">0.50</tspan></text>
<g
         transform="scale(1,-1)"
         id="g9241"><path
           id="path9243"
           style="fill:none;stroke:#000000;stroke-width:0.80000001;stroke-linecap:butt;stroke-linejoin:round;stroke-miterlimit:10;stroke-dasharray:none;stroke-opacity:1"
           d="m 42.766,-246.176 h -3.5" /></g><text
         id="text9247"
         style="font-variant:normal;font-weight:normal;font-size:10px;font-family:'DejaVu Sans';-inkscape-font-specification:DejaVuSans;writing-mode:lr-tb;fill:#000000;fill-opacity:1;fill-rule:nonzero;stroke:none"
         transform="translate(13.500007,249.97187)"><tspan
           id="tspan9245"
           y="0"
           x="0 6.3600001 9.5299997 15.89">0.55</tspan></text>
<g
         transform="scale(1,-1)"
         id="g9249"><path
           id="path9251"
           style="fill:none;stroke:#000000;stroke-width:0.80000001;stroke-linecap:butt;stroke-linejoin:round;stroke-miterlimit:10;stroke-dasharray:none;stroke-opacity:1"
           d="m 42.766,-211.523 h -3.5" /></g><text
         id="text9255"
         style="font-variant:normal;font-weight:normal;font-size:10px;font-family:'DejaVu Sans';-inkscape-font-specification:DejaVuSans;writing-mode:lr-tb;fill:#000000;fill-opacity:1;fill-rule:nonzero;stroke:none"
         transform="translate(13.500007,215.32186)"><tspan
           id="tspan9253"
           y="0"
           x="0 6.3600001 9.5299997 15.89">0.60</tspan></text>
<g
         transform="scale(1,-1)"
         id="g9257"><path
           id="path9259"
           style="fill:none;stroke:#000000;stroke-width:0.80000001;stroke-linecap:butt;stroke-linejoin:round;stroke-miterlimit:10;stroke-dasharray:none;stroke-opacity:1"
           d="m 42.766,-176.875 h -3.5" /></g><text
         id="text9263"
         style="font-variant:normal;font-weight:normal;font-size:10px;font-family:'DejaVu Sans';-inkscape-font-specification:DejaVuSans;writing-mode:lr-tb;fill:#000000;fill-opacity:1;fill-rule:nonzero;stroke:none"
         transform="translate(13.500007,180.67187)"><tspan
           id="tspan9261"
           y="0"
           x="0 6.3600001 9.5299997 15.89">0.65</tspan></text>
<g
         transform="scale(1,-1)"
         id="g9265"><path
           id="path9267"
           style="fill:none;stroke:#000000;stroke-width:0.80000001;stroke-linecap:butt;stroke-linejoin:round;stroke-miterlimit:10;stroke-dasharray:none;stroke-opacity:1"
           d="m 42.766,-142.227 h -3.5" /></g><text
         id="text9271"
         style="font-variant:normal;font-weight:normal;font-size:10px;font-family:'DejaVu Sans';-inkscape-font-specification:DejaVuSans;writing-mode:lr-tb;fill:#000000;fill-opacity:1;fill-rule:nonzero;stroke:none"
         transform="translate(13.500007,146.02187)"><tspan
           id="tspan9269"
           y="0"
           x="0 6.3600001 9.5299997 15.89">0.70</tspan></text>
<g
         transform="scale(1,-1)"
         id="g9273"><path
           id="path9275"
           style="fill:none;stroke:#000000;stroke-width:0.80000001;stroke-linecap:butt;stroke-linejoin:round;stroke-miterlimit:10;stroke-dasharray:none;stroke-opacity:1"
           d="m 42.766,-107.574 h -3.5" /></g><text
         id="text9279"
         style="font-variant:normal;font-weight:normal;font-size:10px;font-family:'DejaVu Sans';-inkscape-font-specification:DejaVuSans;writing-mode:lr-tb;fill:#000000;fill-opacity:1;fill-rule:nonzero;stroke:none"
         transform="translate(13.500007,111.37187)"><tspan
           id="tspan9277"
           y="0"
           x="0 6.3600001 9.5299997 15.89">0.75</tspan></text>
<g
         transform="scale(1,-1)"
         id="g9281"><path
           id="path9283"
           style="fill:none;stroke:#000000;stroke-width:0.80000001;stroke-linecap:butt;stroke-linejoin:round;stroke-miterlimit:10;stroke-dasharray:none;stroke-opacity:1"
           d="m 42.766,-72.926 h -3.5" /></g><text
         id="text9287"
         style="font-variant:normal;font-weight:normal;font-size:10px;font-family:'DejaVu Sans';-inkscape-font-specification:DejaVuSans;writing-mode:lr-tb;fill:#000000;fill-opacity:1;fill-rule:nonzero;stroke:none"
         transform="translate(13.500007,76.721876)"><tspan
           id="tspan9285"
           y="0"
           x="0 6.3600001 9.5299997 15.89">0.80</tspan></text>
<g
         transform="scale(1,-1)"
         id="g9289"><path
           id="path9291"
           style="fill:none;stroke:#000000;stroke-width:0.80000001;stroke-linecap:butt;stroke-linejoin:round;stroke-miterlimit:10;stroke-dasharray:none;stroke-opacity:1"
           d="m 42.766,-38.273 h -3.5" /></g><text
         id="text9295"
         style="font-variant:normal;font-weight:normal;font-size:10px;font-family:'DejaVu Sans';-inkscape-font-specification:DejaVuSans;writing-mode:lr-tb;fill:#000000;fill-opacity:1;fill-rule:nonzero;stroke:none"
         transform="translate(13.500007,42.071877)"><tspan
           id="tspan9293"
           y="0"
           x="0 6.3600001 9.5299997 15.89">0.85</tspan></text>
<g
         transform="scale(1,-1)"
         id="g9297"><path
           id="path9299"
           style="fill:none;stroke:#000000;stroke-width:0.80000001;stroke-linecap:butt;stroke-linejoin:round;stroke-miterlimit:10;stroke-dasharray:none;stroke-opacity:1"
           d="m 42.766,-3.625 h -3.5" /></g><text
         id="text9303"
         style="font-variant:normal;font-weight:normal;font-size:10px;font-family:'DejaVu Sans';-inkscape-font-specification:DejaVuSans;writing-mode:lr-tb;fill:#000000;fill-opacity:1;fill-rule:nonzero;stroke:none"
         transform="translate(13.500007,7.421878)"><tspan
           id="tspan9301"
           y="0"
           x="0 6.3600001 9.5299997 15.89">0.90</tspan></text>
<text
         id="text9307"
         style="font-variant:normal;font-weight:normal;font-size:10px;font-family:'DejaVu Sans';-inkscape-font-specification:DejaVuSans;writing-mode:lr-tb;fill:#000000;fill-opacity:1;fill-rule:nonzero;stroke:none"
         transform="rotate(-90,81.882031,74.460153)"><tspan
           id="tspan9305"
           y="0"
           x="0 6.3400002 11.83 17.940001 22.049999">Score</tspan></text>
</g><g
       id="g9309"><g
         clip-path="url(#clipPath9315)"
         id="g9311"><g
           id="g9317"><g
             id="g9319"><g
               clip-path="url(#clipPath9325)"
               id="g9321"><g
                 id="g9327"><g
                   transform="scale(1,-1)"
                   id="g9329"><path
                     id="path9331"
                     style="fill:none;stroke:#1f77b4;stroke-width:1.5;stroke-linecap:square;stroke-linejoin:round;stroke-miterlimit:10;stroke-dasharray:none;stroke-opacity:1"
                     d="m 80.813,-34.496 5.105,-74.25 5.105,-22.649 5.11,35.45 5.105,-3.621 5.106,0.308 5.109,-0.297 5.106,-77.461 5.105,40.403 5.109,9.168 5.106,-29.254 5.105,-0.34 5.11,5.926 5.105,2.758 5.106,25.312 5.109,4.195 5.106,20.45 5.105,-1.61 5.109,-5.89 5.106,1.984 5.105,9.062 5.11,-2.636 5.105,2.375 5.106,0.754 5.109,-0.325 5.105,0.395 5.106,4.258 5.109,-1.356 5.106,-0.984 5.105,2.187 5.11,-0.062 5.105,10.457 5.106,0.266 5.109,0.898 5.105,-0.258 5.106,-2.816 5.109,0.23 5.106,2.446 5.105,0.984 5.11,-0.547 5.105,-2.695 5.106,-0.196 5.109,2.028 5.105,-3.031 5.106,4.273 5.109,5.207 5.106,0.57 5.105,-1.199 5.11,11.027 5.105,1.864 5.105,0.453 5.11,2.637 5.105,-1.454 5.106,-0.16 5.109,-1.574 5.106,1.645 5.105,-0.086 5.109,0.422 5.106,2.714 5.105,-1.32 5.11,2.914 5.105,1.035 5.106,-2.508 5.109,-0.183 5.106,-0.727 10.214,2.211 5.106,0.719 5.105,7.277 5.11,-0.187 5.105,4 5.106,0.273 5.109,1.063 5.105,0.082 5.106,0.363 5.109,-1.512 5.106,-0.148 5.105,0.281 5.11,-0.066 5.105,-0.895 5.106,0.18 5.109,-0.219 5.105,0.317 5.106,-0.012 5.109,-0.133 5.106,1.453 5.105,4.426 5.11,1.5 5.105,0.988 5.106,-0.164 5.109,1.129 5.105,-0.234 5.106,0.105 5.109,1.512 5.106,0.308 5.105,-0.875 5.11,1.708 5.105,-0.997 5.105,-0.285 5.11,2.332 10.211,0.629 5.109,-1.679 5.106,-0.446 5.105,-1.101 5.109,-0.821 5.106,0.684 5.105,0.355 5.11,-1.578 5.105,2.172 5.106,1.008 5.109,-0.613 5.106,1.582 5.105,0.078 5.109,0.344 5.106,-0.692 5.105,-0.047 5.11,-0.437 5.105,2.875 5.106,-0.981 5.109,0.578 5.105,0.711 5.106,-2.886 5.109,0.379 10.211,-0.231 5.11,0.621 5.105,0.891 5.106,-0.957 5.109,-0.321 5.105,-1.593 5.106,-0.922 5.109,0.039 5.106,-0.137 5.105,0.899 5.11,-0.582 10.211,0.918 5.109,0.433 5.105,-1.094 5.106,-0.972 5.109,1.258 5.106,0.011 5.105,0.325 5.11,0.859 5.105,1.039 5.105,0.484 5.11,-0.871 5.105,0.328 5.106,-0.285" /></g></g></g></g></g><g
           id="g9333"><g
             id="g9335"><g
               clip-path="url(#clipPath9341)"
               id="g9337"><g
                 id="g9343"><g
                   transform="scale(1,-1)"
                   id="g9345"><path
                     id="path9347"
                     style="fill:none;stroke:#ff7f0e;stroke-width:1.5;stroke-linecap:square;stroke-linejoin:round;stroke-miterlimit:10;stroke-dasharray:none;stroke-opacity:1"
                     d="m 80.813,-54.156 5.105,-85.18 5.105,-97.793 5.11,68.531 5.105,-20.597 5.106,-8.278 5.109,-4.621 5.106,-54.621 5.105,50.531 5.109,54.864 5.106,-67.02 5.105,-0.461 5.11,-10.742 5.105,-1.156 5.106,72.652 5.109,15.707 5.106,30.262 5.105,-1.965 5.109,-8.086 5.106,2.656 5.105,12.938 5.11,-2.543 5.105,1.273 5.106,0.344 5.109,-0.23 5.105,0.578 5.106,11.203 5.109,-1.27 5.106,-2.078 5.105,1.387 5.11,-2.891 5.105,14.438 10.215,-1.387 5.105,-0.574 5.106,-2.426 5.109,0.113 5.106,1.387 5.105,4.273 5.11,0.461 5.105,-2.539 5.106,-1.269 5.109,3.926 5.105,-3.004 5.106,3.695 5.109,6.121 5.106,1.504 5.105,-2.309 5.11,12.125 5.105,1.157 5.105,0.461 5.11,1.964 5.105,-1.156 5.106,0.231 5.109,-1.618 5.106,2.543 h 5.105 l 5.109,0.461 5.106,2.887 5.105,-1.73 5.11,2.769 5.105,1.039 5.106,-2.308 5.109,-0.461 5.106,-0.696 5.105,1.157 5.109,1.039 5.106,0.808 5.105,7.16 5.11,0.579 5.105,3.929 5.106,0.231 5.109,1.269 5.105,-0.578 5.106,0.692 5.109,-1.731 5.106,0.809 5.105,-0.118 h 5.11 l 5.105,-0.921 5.106,0.691 5.109,-0.461 5.105,0.231 5.106,0.117 5.109,-0.348 5.106,1.039 5.105,4.391 10.215,3.117 5.106,-0.461 5.109,0.809 5.105,-0.465 5.106,-0.231 5.109,1.965 5.106,1.039 5.105,-1.039 5.11,1.965 5.105,-1.273 5.105,-1.618 5.11,1.965 5.105,0.348 5.106,0.691 5.109,-2.078 5.106,-0.691 5.105,-0.465 5.109,-0.578 5.106,1.273 5.105,0.231 5.11,-1.618 5.105,1.5 5.106,0.579 5.109,-0.114 5.106,1.27 5.105,0.344 5.109,0.578 5.106,-0.922 5.105,-0.117 5.11,-0.344 5.105,2.656 5.106,-0.926 5.109,0.579 5.105,1.039 5.106,-3.348 5.109,0.691 5.106,-0.23 h 5.105 l 5.11,0.461 5.105,1.269 5.106,-0.578 5.109,-0.23 5.105,-1.383 5.106,-1.156 5.109,0.461 5.106,-0.231 5.105,1.039 5.11,-0.347 5.105,0.117 5.106,0.578 5.109,0.23 10.211,-1.156 5.109,1.504 10.211,0.23 5.11,1.04 5.105,1.156 5.105,0.691 5.11,-0.926 5.105,0.348 5.106,-0.23" /></g></g></g></g></g></g></g><g
       id="g9349"><g
         transform="scale(1,-1)"
         id="g9351"><path
           id="path9353"
           style="fill:none;stroke:#000000;stroke-width:0.80000001;stroke-linecap:square;stroke-linejoin:miter;stroke-miterlimit:10;stroke-dasharray:none;stroke-opacity:1"
           d="M 42.766,-280.824 V -3.625" /></g><g
         transform="scale(1,-1)"
         id="g9355"><path
           id="path9357"
           style="fill:none;stroke:#000000;stroke-width:0.80000001;stroke-linecap:square;stroke-linejoin:miter;stroke-miterlimit:10;stroke-dasharray:none;stroke-opacity:1"
           d="M 879.766,-280.824 V -3.625" /></g><g
         transform="scale(1,-1)"
         id="g9359"><path
           id="path9361"
           style="fill:none;stroke:#000000;stroke-width:0.80000001;stroke-linecap:square;stroke-linejoin:miter;stroke-miterlimit:10;stroke-dasharray:none;stroke-opacity:1"
           d="m 42.766,-280.824 h 837" /></g><g
         transform="scale(1,-1)"
         id="g9363"><path
           id="path9365"
           style="fill:none;stroke:#000000;stroke-width:0.80000001;stroke-linecap:square;stroke-linejoin:miter;stroke-miterlimit:10;stroke-dasharray:none;stroke-opacity:1"
           d="m 42.766,-3.625 h 837" /></g><path
         id="path9367"
         style="fill:#ffffff;fill-opacity:0.8;fill-rule:nonzero;stroke:none"
         d="m 763.141,275.824 h 109.625 c 1.332,0 2,-0.664 2,-2 V 245.48 c 0,-1.332 -0.668,-2 -2,-2 H 763.141 c -1.332,0 -2,0.668 -2,2 v 28.344 c 0,1.336 0.668,2 2,2 z" /><g
         transform="scale(1,-1)"
         id="g9369"><path
           id="path9371"
           style="fill:none;stroke:#cccccc;stroke-width:1;stroke-linecap:butt;stroke-linejoin:miter;stroke-miterlimit:10;stroke-dasharray:none;stroke-opacity:0.8"
           d="m 763.141,-275.824 h 109.625 c 1.332,0 2,0.664 2,2 v 28.344 c 0,1.332 -0.668,2 -2,2 H 763.141 c -1.332,0 -2,-0.668 -2,-2 v -28.344 c 0,-1.336 0.668,-2 2,-2 z" /></g><g
         transform="scale(1,-1)"
         id="g9373"><path
           id="path9375"
           style="fill:none;stroke:#1f77b4;stroke-width:1.5;stroke-linecap:square;stroke-linejoin:round;stroke-miterlimit:10;stroke-dasharray:none;stroke-opacity:1"
           d="m 765.141,-251.574 h 20" /></g><text
         id="text9379"
         style="font-variant:normal;font-weight:normal;font-size:10px;font-family:'DejaVu Sans';-inkscape-font-specification:DejaVuSans;writing-mode:lr-tb;fill:#000000;fill-opacity:1;fill-rule:nonzero;stroke:none"
         transform="translate(793.14061,255.07499)"><tspan
           id="tspan9377"
           y="0"
           x="0 6.0300002 10.14 16.290001 21.780001 24.549999 29.75 32.52 38.630001 44.959999 48.130001 52.029999 58.150002 64.059998 70.400002 73.57">Precision (avg.)</tspan></text>
<g
         transform="scale(1,-1)"
         id="g9381"><path
           id="path9383"
           style="fill:none;stroke:#ff7f0e;stroke-width:1.5;stroke-linecap:square;stroke-linejoin:round;stroke-miterlimit:10;stroke-dasharray:none;stroke-opacity:1"
           d="m 765.141,-266.246 h 20" /></g><text
         id="text9387"
         style="font-variant:normal;font-weight:normal;font-size:10px;font-family:'DejaVu Sans';-inkscape-font-specification:DejaVuSans;writing-mode:lr-tb;fill:#000000;fill-opacity:1;fill-rule:nonzero;stroke:none"
         transform="translate(793.14061,269.74687)"><tspan
           id="tspan9385"
           y="0"
           x="0 6.9400001 13.09 18.58 24.700001 27.469999 30.24 33.41 37.310001 43.43 49.34 55.68 58.849998">Recall (avg.)</tspan></text>
</g><g
       id="g9389"><g
         clip-path="url(#clipPath9395)"
         id="g9391"><g
           id="g9397"><g
             id="g9399"><g
               clip-path="url(#clipPath9405)"
               id="g9401"><g
                 id="g9407"><g
                   transform="scale(1,-1)"
                   id="g9409"><path
                     id="path9411"
                     style="fill:none;stroke:#b0b0b0;stroke-width:0.80000001;stroke-linecap:square;stroke-linejoin:round;stroke-miterlimit:10;stroke-dasharray:none;stroke-opacity:1"
                     d="m 42.766,-268.227 h 837" /></g></g></g></g></g></g></g><g
       id="g9413"><g
         transform="scale(1,-1)"
         id="g9415"><path
           id="path9417"
           style="fill:none;stroke:#000000;stroke-width:0.80000001;stroke-linecap:butt;stroke-linejoin:round;stroke-miterlimit:10;stroke-dasharray:none;stroke-opacity:1"
           d="m 879.766,-268.227 h 3.5" /></g><text
         id="text9421"
         style="font-variant:normal;font-weight:normal;font-size:10px;font-family:'DejaVu Sans';-inkscape-font-specification:DejaVuSans;writing-mode:lr-tb;fill:#000000;fill-opacity:1;fill-rule:nonzero;stroke:none"
         transform="translate(886.76561,272.02187)"><tspan
           id="tspan9419"
           y="0"
           x="0">0</tspan></text>
</g><g
       id="g9423"><g
         clip-path="url(#clipPath9429)"
         id="g9425"><g
           id="g9431"><g
             id="g9433"><g
               clip-path="url(#clipPath9439)"
               id="g9435"><g
                 id="g9441"><g
                   transform="scale(1,-1)"
                   id="g9443"><path
                     id="path9445"
                     style="fill:none;stroke:#b0b0b0;stroke-width:0.80000001;stroke-linecap:square;stroke-linejoin:round;stroke-miterlimit:10;stroke-dasharray:none;stroke-opacity:1"
                     d="m 42.766,-217.824 h 837" /></g></g></g></g></g></g></g><g
       id="g9447"><g
         transform="scale(1,-1)"
         id="g9449"><path
           id="path9451"
           style="fill:none;stroke:#000000;stroke-width:0.80000001;stroke-linecap:butt;stroke-linejoin:round;stroke-miterlimit:10;stroke-dasharray:none;stroke-opacity:1"
           d="m 879.766,-217.824 h 3.5" /></g><text
         id="text9455"
         style="font-variant:normal;font-weight:normal;font-size:10px;font-family:'DejaVu Sans';-inkscape-font-specification:DejaVuSans;writing-mode:lr-tb;fill:#000000;fill-opacity:1;fill-rule:nonzero;stroke:none"
         transform="translate(886.76561,221.62187)"><tspan
           id="tspan9453"
           y="0"
           x="0">1</tspan></text>
</g><g
       id="g9457"><g
         clip-path="url(#clipPath9463)"
         id="g9459"><g
           id="g9465"><g
             id="g9467"><g
               clip-path="url(#clipPath9473)"
               id="g9469"><g
                 id="g9475"><g
                   transform="scale(1,-1)"
                   id="g9477"><path
                     id="path9479"
                     style="fill:none;stroke:#b0b0b0;stroke-width:0.80000001;stroke-linecap:square;stroke-linejoin:round;stroke-miterlimit:10;stroke-dasharray:none;stroke-opacity:1"
                     d="m 42.766,-167.426 h 837" /></g></g></g></g></g></g></g><g
       id="g9481"><g
         transform="scale(1,-1)"
         id="g9483"><path
           id="path9485"
           style="fill:none;stroke:#000000;stroke-width:0.80000001;stroke-linecap:butt;stroke-linejoin:round;stroke-miterlimit:10;stroke-dasharray:none;stroke-opacity:1"
           d="m 879.766,-167.426 h 3.5" /></g><text
         id="text9489"
         style="font-variant:normal;font-weight:normal;font-size:10px;font-family:'DejaVu Sans';-inkscape-font-specification:DejaVuSans;writing-mode:lr-tb;fill:#000000;fill-opacity:1;fill-rule:nonzero;stroke:none"
         transform="translate(886.76561,171.22187)"><tspan
           id="tspan9487"
           y="0"
           x="0">2</tspan></text>
</g><g
       id="g9491"><g
         clip-path="url(#clipPath9497)"
         id="g9493"><g
           id="g9499"><g
             id="g9501"><g
               clip-path="url(#clipPath9507)"
               id="g9503"><g
                 id="g9509"><g
                   transform="scale(1,-1)"
                   id="g9511"><path
                     id="path9513"
                     style="fill:none;stroke:#b0b0b0;stroke-width:0.80000001;stroke-linecap:square;stroke-linejoin:round;stroke-miterlimit:10;stroke-dasharray:none;stroke-opacity:1"
                     d="m 42.766,-117.023 h 837" /></g></g></g></g></g></g></g><g
       id="g9515"><g
         transform="scale(1,-1)"
         id="g9517"><path
           id="path9519"
           style="fill:none;stroke:#000000;stroke-width:0.80000001;stroke-linecap:butt;stroke-linejoin:round;stroke-miterlimit:10;stroke-dasharray:none;stroke-opacity:1"
           d="m 879.766,-117.023 h 3.5" /></g><text
         id="text9523"
         style="font-variant:normal;font-weight:normal;font-size:10px;font-family:'DejaVu Sans';-inkscape-font-specification:DejaVuSans;writing-mode:lr-tb;fill:#000000;fill-opacity:1;fill-rule:nonzero;stroke:none"
         transform="translate(886.76561,120.82187)"><tspan
           id="tspan9521"
           y="0"
           x="0">3</tspan></text>
</g><g
       id="g9525"><g
         clip-path="url(#clipPath9531)"
         id="g9527"><g
           id="g9533"><g
             id="g9535"><g
               clip-path="url(#clipPath9541)"
               id="g9537"><g
                 id="g9543"><g
                   transform="scale(1,-1)"
                   id="g9545"><path
                     id="path9547"
                     style="fill:none;stroke:#b0b0b0;stroke-width:0.80000001;stroke-linecap:square;stroke-linejoin:round;stroke-miterlimit:10;stroke-dasharray:none;stroke-opacity:1"
                     d="m 42.766,-66.625 h 837" /></g></g></g></g></g></g></g><g
       id="g9549"><g
         transform="scale(1,-1)"
         id="g9551"><path
           id="path9553"
           style="fill:none;stroke:#000000;stroke-width:0.80000001;stroke-linecap:butt;stroke-linejoin:round;stroke-miterlimit:10;stroke-dasharray:none;stroke-opacity:1"
           d="m 879.766,-66.625 h 3.5" /></g><text
         id="text9557"
         style="font-variant:normal;font-weight:normal;font-size:10px;font-family:'DejaVu Sans';-inkscape-font-specification:DejaVuSans;writing-mode:lr-tb;fill:#000000;fill-opacity:1;fill-rule:nonzero;stroke:none"
         transform="translate(886.76561,70.421876)"><tspan
           id="tspan9555"
           y="0"
           x="0">4</tspan></text>
</g><g
       id="g9559"><g
         clip-path="url(#clipPath9565)"
         id="g9561"><g
           id="g9567"><g
             id="g9569"><g
               clip-path="url(#clipPath9575)"
               id="g9571"><g
                 id="g9577"><g
                   transform="scale(1,-1)"
                   id="g9579"><path
                     id="path9581"
                     style="fill:none;stroke:#b0b0b0;stroke-width:0.80000001;stroke-linecap:square;stroke-linejoin:round;stroke-miterlimit:10;stroke-dasharray:none;stroke-opacity:1"
                     d="m 42.766,-16.227 h 837" /></g></g></g></g></g></g></g><g
       id="g9583"><g
         transform="scale(1,-1)"
         id="g9585"><path
           id="path9587"
           style="fill:none;stroke:#000000;stroke-width:0.80000001;stroke-linecap:butt;stroke-linejoin:round;stroke-miterlimit:10;stroke-dasharray:none;stroke-opacity:1"
           d="m 879.766,-16.227 h 3.5" /></g><text
         id="text9591"
         style="font-variant:normal;font-weight:normal;font-size:10px;font-family:'DejaVu Sans';-inkscape-font-specification:DejaVuSans;writing-mode:lr-tb;fill:#000000;fill-opacity:1;fill-rule:nonzero;stroke:none"
         transform="translate(886.76561,20.021878)"><tspan
           id="tspan9589"
           y="0"
           x="0">5</tspan></text>
<text
         id="text9595"
         style="font-variant:normal;font-weight:normal;font-size:10px;font-family:'DejaVu Sans';-inkscape-font-specification:DejaVuSans;writing-mode:lr-tb;fill:#000000;fill-opacity:1;fill-rule:nonzero;stroke:none"
         transform="rotate(-90,537.90936,-366.80937)"><tspan
           id="tspan9593"
           y="0"
           x="0 6.98 9.75 15.87 21.07 26.27 29.440001 34.93 41.040001 47.369999 53.700001">Class count</tspan></text>
</g><g
       id="g9597"><g
         clip-path="url(#clipPath9603)"
         id="g9599"><g
           id="g9605"><g
             id="g9607"><g
               clip-path="url(#clipPath9613)"
               id="g9609"><g
                 id="g9615"><g
                   transform="scale(1,-1)"
                   id="g9617"><path
                     id="path9619"
                     style="fill:none;stroke:#c0c0c0;stroke-width:1.5;stroke-linecap:square;stroke-linejoin:round;stroke-miterlimit:10;stroke-dasharray:none;stroke-opacity:1"
                     d="m 80.813,-167.426 h 5.105 v 50.403 h 30.641 v 50.398 h 15.32 v 50.398 h 709.84" /></g></g></g></g></g></g></g><g
       id="g9621"><g
         transform="scale(1,-1)"
         id="g9623"><path
           id="path9625"
           style="fill:none;stroke:#000000;stroke-width:0.80000001;stroke-linecap:square;stroke-linejoin:miter;stroke-miterlimit:10;stroke-dasharray:none;stroke-opacity:1"
           d="M 42.766,-280.824 V -3.625" /></g><g
         transform="scale(1,-1)"
         id="g9627"><path
           id="path9629"
           style="fill:none;stroke:#000000;stroke-width:0.80000001;stroke-linecap:square;stroke-linejoin:miter;stroke-miterlimit:10;stroke-dasharray:none;stroke-opacity:1"
           d="M 879.766,-280.824 V -3.625" /></g><g
         transform="scale(1,-1)"
         id="g9631"><path
           id="path9633"
           style="fill:none;stroke:#000000;stroke-width:0.80000001;stroke-linecap:square;stroke-linejoin:miter;stroke-miterlimit:10;stroke-dasharray:none;stroke-opacity:1"
           d="m 42.766,-280.824 h 837" /></g><g
         transform="scale(1,-1)"
         id="g9635"><path
           id="path9637"
           style="fill:none;stroke:#000000;stroke-width:0.80000001;stroke-linecap:square;stroke-linejoin:miter;stroke-miterlimit:10;stroke-dasharray:none;stroke-opacity:1"
           d="m 42.766,-3.625 h 837" /></g><path
         id="path9639"
         style="fill:#ffffff;fill-opacity:0.8;fill-rule:nonzero;stroke:none"
         d="m 783.016,151.063 h 89.75 c 1.332,0 2,-0.668 2,-2 v -13.672 c 0,-1.336 -0.668,-2 -2,-2 h -89.75 c -1.332,0 -2,0.664 -2,2 v 13.672 c 0,1.332 0.668,2 2,2 z" /><g
         transform="scale(1,-1)"
         id="g9641"><path
           id="path9643"
           style="fill:none;stroke:#cccccc;stroke-width:1;stroke-linecap:butt;stroke-linejoin:miter;stroke-miterlimit:10;stroke-dasharray:none;stroke-opacity:0.8"
           d="m 783.016,-151.063 h 89.75 c 1.332,0 2,0.668 2,2 v 13.672 c 0,1.336 -0.668,2 -2,2 h -89.75 c -1.332,0 -2,-0.664 -2,-2 v -13.672 c 0,-1.332 0.668,-2 2,-2 z" /></g><g
         transform="scale(1,-1)"
         id="g9645"><path
           id="path9647"
           style="fill:none;stroke:#c0c0c0;stroke-width:1.5;stroke-linecap:square;stroke-linejoin:round;stroke-miterlimit:10;stroke-dasharray:none;stroke-opacity:1"
           d="m 785.016,-141.484 h 20" /></g><text
         id="text9651"
         style="font-variant:normal;font-weight:normal;font-size:10px;font-family:'DejaVu Sans';-inkscape-font-specification:DejaVuSans;writing-mode:lr-tb;fill:#000000;fill-opacity:1;fill-rule:nonzero;stroke:none"
         transform="translate(813.01561,144.9828)"><tspan
           id="tspan9649"
           y="0"
           x="0 6.98 9.75 15.87 21.07 26.27 29.440001 34.93 41.040001 47.369999 53.700001">Class count</tspan></text>
</g></g></svg>