<?xml version="1.0" encoding="UTF-8" standalone="no"?>
<svg
   xmlns:dc="http://purl.org/dc/elements/1.1/"
   xmlns:cc="http://creativecommons.org/ns#"
   xmlns:rdf="http://www.w3.org/1999/02/22-rdf-syntax-ns#"
   xmlns:svg="http://www.w3.org/2000/svg"
   xmlns="http://www.w3.org/2000/svg"
   id="svg8"
   version="1.1"
   viewBox="0 0 76.031723 58.676117"
   height="58.676117mm"
   width="76.031723mm">
  <defs
     id="defs2">
    <clipPath
       clipPathUnits="userSpaceOnUse"
       id="clipPath835">
      <path
         d="M 0,0 H 216 V 167 H 0 Z"
         id="path833" />
    </clipPath>
  </defs>
  <metadata
     id="metadata5">
    <rdf:RDF>
      <cc:Work
         rdf:about="">
        <dc:format>image/svg+xml</dc:format>
        <dc:type
           rdf:resource="http://purl.org/dc/dcmitype/StillImage" />
        <dc:title></dc:title>
      </cc:Work>
    </rdf:RDF>
  </metadata>
  <g
     transform="translate(-2.80557,-0.81075238)"
     id="layer1">
    <g
       id="g823"
       transform="matrix(0.35277777,0,0,0.35277777,2.80557,0.81075238)">
      <g
         id="g825">
        <g
           id="g827">
          <g
             id="g829">
            <g
               id="g831"
               clip-path="url(#clipPath835)">
              <g
                 id="g837">
                <path
                   d="M 0.023,0 H 133.425 V 13.898 H 0.023 Z"
                   style="fill:#cccccc;fill-opacity:1;fill-rule:evenodd;stroke:none"
                   id="path839" />
                <path
                   d="m 133.426,0 h 39.699 v 13.898 h -39.699 z"
                   style="fill:#cccccc;fill-opacity:1;fill-rule:evenodd;stroke:none"
                   id="path841" />
                <path
                   d="m 173.125,0 h 42.301 v 13.898 h -42.301 z"
                   style="fill:#cccccc;fill-opacity:1;fill-rule:evenodd;stroke:none"
                   id="path843" />
                <path
                   d="M 0.023,13.898 H 133.425 V 27.699 H 0.023 Z"
                   style="fill:#ffff99;fill-opacity:1;fill-rule:evenodd;stroke:none"
                   id="path845" />
                <path
                   d="m 133.426,13.898 h 39.699 v 13.801 h -39.699 z"
                   style="fill:#ffff99;fill-opacity:1;fill-rule:evenodd;stroke:none"
                   id="path847" />
                <path
                   d="m 173.125,13.898 h 42.301 v 13.801 h -42.301 z"
                   style="fill:#ffff99;fill-opacity:1;fill-rule:evenodd;stroke:none"
                   id="path849" />
                <path
                   d="M 0.023,27.699 H 133.425 V 41.601 H 0.023 Z"
                   style="fill:#ccffcc;fill-opacity:1;fill-rule:evenodd;stroke:none"
                   id="path851" />
                <path
                   d="m 133.426,27.699 h 39.699 v 13.902 h -39.699 z"
                   style="fill:#ccffcc;fill-opacity:1;fill-rule:evenodd;stroke:none"
                   id="path853" />
                <path
                   d="m 173.125,27.699 h 42.301 v 13.902 h -42.301 z"
                   style="fill:#ccffcc;fill-opacity:1;fill-rule:evenodd;stroke:none"
                   id="path855" />
                <path
                   d="M 0.023,41.602 H 133.425 V 55.399 H 0.023 Z"
                   style="fill:#ccffcc;fill-opacity:1;fill-rule:evenodd;stroke:none"
                   id="path857" />
                <path
                   d="m 133.426,41.602 h 39.699 v 13.797 h -39.699 z"
                   style="fill:#ccffcc;fill-opacity:1;fill-rule:evenodd;stroke:none"
                   id="path859" />
                <path
                   d="m 173.125,41.602 h 42.301 v 13.797 h -42.301 z"
                   style="fill:#ccffcc;fill-opacity:1;fill-rule:evenodd;stroke:none"
                   id="path861" />
                <path
                   d="M 0.023,55.398 H 133.425 V 69.3 H 0.023 Z"
                   style="fill:#ccffcc;fill-opacity:1;fill-rule:evenodd;stroke:none"
                   id="path863" />
                <path
                   d="m 133.426,55.398 h 39.699 V 69.3 h -39.699 z"
                   style="fill:#ccffcc;fill-opacity:1;fill-rule:evenodd;stroke:none"
                   id="path865" />
                <path
                   d="m 173.125,55.398 h 42.301 V 69.3 h -42.301 z"
                   style="fill:#ccffcc;fill-opacity:1;fill-rule:evenodd;stroke:none"
                   id="path867" />
                <path
                   d="M 0.023,69.301 H 133.425 V 83.102 H 0.023 Z"
                   style="fill:#ccffcc;fill-opacity:1;fill-rule:evenodd;stroke:none"
                   id="path869" />
                <path
                   d="m 133.426,69.301 h 39.699 v 13.801 h -39.699 z"
                   style="fill:#ccffcc;fill-opacity:1;fill-rule:evenodd;stroke:none"
                   id="path871" />
                <path
                   d="m 173.125,69.301 h 42.301 v 13.801 h -42.301 z"
                   style="fill:#ccffcc;fill-opacity:1;fill-rule:evenodd;stroke:none"
                   id="path873" />
                <path
                   d="M 0.023,83.102 H 133.425 V 97 H 0.023 Z"
                   style="fill:#cfe7f5;fill-opacity:1;fill-rule:evenodd;stroke:none"
                   id="path875" />
                <path
                   d="m 133.426,83.102 h 39.699 V 97 h -39.699 z"
                   style="fill:#cfe7f5;fill-opacity:1;fill-rule:evenodd;stroke:none"
                   id="path877" />
                <path
                   d="m 173.125,83.102 h 42.301 V 97 h -42.301 z"
                   style="fill:#cfe7f5;fill-opacity:1;fill-rule:evenodd;stroke:none"
                   id="path879" />
                <path
                   d="m 0.023,97 h 133.402 v 13.801 H 0.023 Z"
                   style="fill:#cfe7f5;fill-opacity:1;fill-rule:evenodd;stroke:none"
                   id="path881" />
                <path
                   d="m 133.426,97 h 39.699 v 13.801 h -39.699 z"
                   style="fill:#cfe7f5;fill-opacity:1;fill-rule:evenodd;stroke:none"
                   id="path883" />
                <path
                   d="m 173.125,97 h 42.301 v 13.801 h -42.301 z"
                   style="fill:#cfe7f5;fill-opacity:1;fill-rule:evenodd;stroke:none"
                   id="path885" />
                <path
                   d="m 0.023,110.801 h 133.402 v 13.898 H 0.023 Z"
                   style="fill:#cfe7f5;fill-opacity:1;fill-rule:evenodd;stroke:none"
                   id="path887" />
                <path
                   d="m 133.426,110.801 h 39.699 v 13.898 h -39.699 z"
                   style="fill:#cfe7f5;fill-opacity:1;fill-rule:evenodd;stroke:none"
                   id="path889" />
                <path
                   d="m 173.125,110.801 h 42.301 v 13.898 h -42.301 z"
                   style="fill:#cfe7f5;fill-opacity:1;fill-rule:evenodd;stroke:none"
                   id="path891" />
                <path
                   d="M 0.023,124.699 H 133.425 V 138.5 H 0.023 Z"
                   style="fill:#cfe7f5;fill-opacity:1;fill-rule:evenodd;stroke:none"
                   id="path893" />
                <path
                   d="m 133.426,124.699 h 39.699 V 138.5 h -39.699 z"
                   style="fill:#cfe7f5;fill-opacity:1;fill-rule:evenodd;stroke:none"
                   id="path895" />
                <path
                   d="m 173.125,124.699 h 42.301 V 138.5 h -42.301 z"
                   style="fill:#cfe7f5;fill-opacity:1;fill-rule:evenodd;stroke:none"
                   id="path897" />
                <path
                   d="m 0.023,138.5 h 133.402 v 13.898 H 0.023 Z"
                   style="fill:#cfe7f5;fill-opacity:1;fill-rule:evenodd;stroke:none"
                   id="path899" />
                <path
                   d="m 133.426,138.5 h 39.699 v 13.898 h -39.699 z"
                   style="fill:#cfe7f5;fill-opacity:1;fill-rule:evenodd;stroke:none"
                   id="path901" />
                <path
                   d="m 173.125,138.5 h 42.301 v 13.898 h -42.301 z"
                   style="fill:#cfe7f5;fill-opacity:1;fill-rule:evenodd;stroke:none"
                   id="path903" />
                <path
                   d="m 0.023,152.398 h 133.402 v 13.801 H 0.023 Z"
                   style="fill:#cfe7f5;fill-opacity:1;fill-rule:evenodd;stroke:none"
                   id="path905" />
                <path
                   d="m 133.426,152.398 h 39.699 v 13.801 h -39.699 z"
                   style="fill:#cfe7f5;fill-opacity:1;fill-rule:evenodd;stroke:none"
                   id="path907" />
                <path
                   d="m 173.125,152.398 h 42.301 v 13.801 h -42.301 z"
                   style="fill:#cfe7f5;fill-opacity:1;fill-rule:evenodd;stroke:none"
                   id="path909" />
                <g
                   id="g911"
                   transform="scale(1,-1)">
                  <path
                     d="m 0.023,-0.102 h 215.5"
                     style="fill:none;stroke:#000000;stroke-width:0.05;stroke-linecap:butt;stroke-linejoin:round;stroke-miterlimit:10;stroke-dasharray:none;stroke-opacity:1"
                     id="path913" />
                </g>
                <g
                   id="g915"
                   transform="scale(1,-1)">
                  <path
                     d="m 0.023,-14 h 215.5"
                     style="fill:none;stroke:#000000;stroke-width:0.05;stroke-linecap:butt;stroke-linejoin:round;stroke-miterlimit:10;stroke-dasharray:none;stroke-opacity:1"
                     id="path917" />
                </g>
                <g
                   id="g919"
                   transform="scale(1,-1)">
                  <path
                     d="m 0.023,-27.801 h 215.5"
                     style="fill:none;stroke:#000000;stroke-width:0.05;stroke-linecap:butt;stroke-linejoin:round;stroke-miterlimit:10;stroke-dasharray:none;stroke-opacity:1"
                     id="path921" />
                </g>
                <g
                   id="g923"
                   transform="scale(1,-1)">
                  <path
                     d="m 0.023,-41.699 h 215.5"
                     style="fill:none;stroke:#000000;stroke-width:0.05;stroke-linecap:butt;stroke-linejoin:round;stroke-miterlimit:10;stroke-dasharray:none;stroke-opacity:1"
                     id="path925" />
                </g>
                <g
                   id="g927"
                   transform="scale(1,-1)">
                  <path
                     d="m 0.023,-55.5 h 215.5"
                     style="fill:none;stroke:#000000;stroke-width:0.05;stroke-linecap:butt;stroke-linejoin:round;stroke-miterlimit:10;stroke-dasharray:none;stroke-opacity:1"
                     id="path929" />
                </g>
                <g
                   id="g931"
                   transform="scale(1,-1)">
                  <path
                     d="m 0.023,-69.398 h 215.5"
                     style="fill:none;stroke:#000000;stroke-width:0.05;stroke-linecap:butt;stroke-linejoin:round;stroke-miterlimit:10;stroke-dasharray:none;stroke-opacity:1"
                     id="path933" />
                </g>
                <g
                   id="g935"
                   transform="scale(1,-1)">
                  <path
                     d="m 0.023,-83.199 h 215.5"
                     style="fill:none;stroke:#000000;stroke-width:0.05;stroke-linecap:butt;stroke-linejoin:round;stroke-miterlimit:10;stroke-dasharray:none;stroke-opacity:1"
                     id="path937" />
                </g>
                <g
                   id="g939"
                   transform="scale(1,-1)">
                  <path
                     d="m 0.023,-97.102 h 215.5"
                     style="fill:none;stroke:#000000;stroke-width:0.05;stroke-linecap:butt;stroke-linejoin:round;stroke-miterlimit:10;stroke-dasharray:none;stroke-opacity:1"
                     id="path941" />
                </g>
                <g
                   id="g943"
                   transform="scale(1,-1)">
                  <path
                     d="m 0.023,-110.898 h 215.5"
                     style="fill:none;stroke:#000000;stroke-width:0.05;stroke-linecap:butt;stroke-linejoin:round;stroke-miterlimit:10;stroke-dasharray:none;stroke-opacity:1"
                     id="path945" />
                </g>
                <g
                   id="g947"
                   transform="scale(1,-1)">
                  <path
                     d="m 0.023,-124.801 h 215.5"
                     style="fill:none;stroke:#000000;stroke-width:0.05;stroke-linecap:butt;stroke-linejoin:round;stroke-miterlimit:10;stroke-dasharray:none;stroke-opacity:1"
                     id="path949" />
                </g>
                <g
                   id="g951"
                   transform="scale(1,-1)">
                  <path
                     d="m 0.023,-138.602 h 215.5"
                     style="fill:none;stroke:#000000;stroke-width:0.05;stroke-linecap:butt;stroke-linejoin:round;stroke-miterlimit:10;stroke-dasharray:none;stroke-opacity:1"
                     id="path953" />
                </g>
                <g
                   id="g955"
                   transform="scale(1,-1)">
                  <path
                     d="m 0.023,-152.5 h 215.5"
                     style="fill:none;stroke:#000000;stroke-width:0.05;stroke-linecap:butt;stroke-linejoin:round;stroke-miterlimit:10;stroke-dasharray:none;stroke-opacity:1"
                     id="path957" />
                </g>
                <g
                   id="g959"
                   transform="scale(1,-1)">
                  <path
                     d="m 0.023,-166.301 h 215.5"
                     style="fill:none;stroke:#000000;stroke-width:0.05;stroke-linecap:butt;stroke-linejoin:round;stroke-miterlimit:10;stroke-dasharray:none;stroke-opacity:1"
                     id="path961" />
                </g>
                <g
                   id="g963"
                   transform="scale(1,-1)">
                  <path
                     d="M 0.023,0 V -166.301"
                     style="fill:none;stroke:#000000;stroke-width:0.05;stroke-linecap:butt;stroke-linejoin:round;stroke-miterlimit:10;stroke-dasharray:none;stroke-opacity:1"
                     id="path965" />
                </g>
                <g
                   id="g967"
                   transform="scale(1,-1)">
                  <path
                     d="M 133.426,0 V -166.301"
                     style="fill:none;stroke:#000000;stroke-width:0.05;stroke-linecap:butt;stroke-linejoin:round;stroke-miterlimit:10;stroke-dasharray:none;stroke-opacity:1"
                     id="path969" />
                </g>
                <g
                   id="g971"
                   transform="scale(1,-1)">
                  <path
                     d="M 173.125,0 V -166.301"
                     style="fill:none;stroke:#000000;stroke-width:0.05;stroke-linecap:butt;stroke-linejoin:round;stroke-miterlimit:10;stroke-dasharray:none;stroke-opacity:1"
                     id="path973" />
                </g>
                <g
                   id="g975"
                   transform="scale(1,-1)">
                  <path
                     d="M 215.426,0 V -166.301"
                     style="fill:none;stroke:#000000;stroke-width:0.05;stroke-linecap:butt;stroke-linejoin:round;stroke-miterlimit:10;stroke-dasharray:none;stroke-opacity:1"
                     id="path977" />
                </g>
                <text
                   transform="translate(1.525,11.300019)"
                   style="font-variant:normal;font-weight:bold;font-size:12px;font-family:'Liberation Serif';-inkscape-font-specification:LiberationSerif-Bold;writing-mode:lr-tb;fill:#000000;fill-opacity:1;fill-rule:nonzero;stroke:none"
                   id="text981">
                  <tspan
                     x="0 11.316 17.316 23.988001 29.268 32.639999 35.639999 42.312 48.312 58.307999 133.356 140.244 146.244 152.916 155.916 173.03999 179.92799 185.92799 192.60001 195.60001"
                     y="0"
                     id="tspan979">Model nameTop 1Top 5</tspan>
                </text>
                <text
                   transform="translate(1.525,25.100019)"
                   style="font-variant:normal;font-weight:normal;font-size:12px;font-family:'Liberation Serif';-inkscape-font-specification:LiberationSerif;writing-mode:lr-tb;fill:#000000;fill-opacity:1;fill-rule:nonzero;stroke:none"
                   id="text1005">
                  <tspan
                     x="0 3.9960001 9.9960003 15.312 20.58 26.664 29.952 33.276001 39.276001 45.276001 51.276001 57.276001 63.276001 69.276001 75.276001 81.276001 136.25999 142.25999 148.25999 151.25999 157.25999 160.25999 178.56 184.56 190.56 193.56 199.56 202.56"
                     y="0"
                     id="tspan983">Inception_v3_29978.0 %93.9 %</tspan>
                  <tspan
                     x="0 10.668 16.667999 22.667999 25.992001 29.268 34.584 43.248001 48.624001 51.911999 57.911999 63.911999 69.912003 75.912003 81.912003 84.912003 90.912003 96.912003 102.912 108.912 136.248 142.248 148.248 151.248 160.248 178.548 184.548 190.548 193.548 202.548"
                     y="13.899996"
                     id="tspan985">MobileNet_v1_1.0_22470.9%89.9%</tspan>
                  <tspan
                     x="0 10.668 16.667999 22.667999 25.992001 29.268 34.584 43.248001 48.624001 51.911999 57.911999 63.911999 69.912003 75.912003 81.912003 84.912003 90.912003 96.912003 102.912 108.912 136.248 142.248 148.248 151.248 157.248 160.248 178.548 184.548 190.548 193.548 199.548 202.548"
                     y="27.699997"
                     id="tspan987">MobileNet_v1_1.0_12865.2 %85.8 %</tspan>
                  <tspan
                     x="0 10.668 16.667999 22.667999 25.992001 29.268 34.584 43.248001 48.624001 51.911999 57.911999 63.911999 69.912003 75.912003 81.912003 84.912003 90.912003 96.912003 102.912 108.912 114.912 136.248 142.248 148.248 151.248 157.248 160.248 178.548 184.548 190.548 193.548 199.548 202.548"
                     y="41.599991"
                     id="tspan989">MobileNet_v1_0.75_22468.4 %88.2 %</tspan>
                  <tspan
                     x="0 10.668 16.667999 22.667999 25.992001 29.268 34.584 43.248001 48.624001 51.911999 57.911999 63.911999 69.912003 75.912003 81.912003 84.912003 90.912003 96.912003 102.912 108.912 114.912 136.248 142.248 148.248 151.248 157.248 160.248 178.548 184.548 190.548 193.548 199.548 202.548"
                     y="55.399994"
                     id="tspan991">MobileNet_v1_0.75_12862.1 %83.9 %</tspan>
                  <tspan
                     x="0 10.668 16.667999 22.667999 25.992001 29.268 34.584 43.248001 48.624001 51.911999 57.911999 63.911999 69.912003 75.912003 81.912003 84.912003 90.912003 96.912003 102.912 108.912 136.248 142.248 148.248 151.248 157.248 160.248 178.548 184.548 190.548 193.548 199.548 202.548"
                     y="69.299988"
                     id="tspan993">MobileNet_v2_1.4_22475.0 %92.5 %</tspan>
                  <tspan
                     x="0 10.668 16.667999 22.667999 25.992001 29.268 34.584 43.248001 48.624001 51.911999 57.911999 63.911999 69.912003 75.912003 81.912003 84.912003 90.912003 96.912003 102.912 108.912 136.248 142.248 148.248 151.248 157.248 160.248 178.548 184.548 190.548 193.548 199.548 202.548"
                     y="83.099991"
                     id="tspan995">MobileNet_v2_1.0_22471.8 %91.0 %</tspan>
                  <tspan
                     x="0 10.668 16.667999 22.667999 25.992001 29.268 34.584 43.248001 48.624001 51.911999 57.911999 63.911999 69.912003 75.912003 81.912003 84.912003 90.912003 96.912003 102.912 108.912 136.248 142.248 148.248 151.248 157.248 160.248 178.548 184.548 190.548 193.548 199.548 202.548"
                     y="96.999985"
                     id="tspan997">MobileNet_v2_1.0_12865.3 %86.9 %</tspan>
                  <tspan
                     x="0 10.668 16.667999 22.667999 25.992001 29.268 34.584 43.248001 48.624001 51.911999 57.911999 63.911999 69.912003 75.912003 81.912003 84.912003 90.912003 96.912003 102.912 136.248 142.248 148.248 151.248 157.248 160.248 178.548 184.548 190.548 193.548 199.548 202.548"
                     y="110.79998"
                     id="tspan999">MobileNet_v2_1.0_9660.3 %83.2 %</tspan>
                  <tspan
                     x="0 10.668 16.667999 22.667999 25.992001 29.268 34.584 43.248001 48.624001 51.911999 57.911999 63.911999 69.912003 75.912003 81.912003 84.912003 90.912003 96.912003 102.912 108.912 114.912 136.248 142.248 148.248 151.248 157.248 160.248 178.548 184.548 190.548 193.548 199.548 202.548"
                     y="124.69998"
                     id="tspan1001">MobileNet_v2_0.75_22469.8 %89.6 %</tspan>
                  <tspan
                     x="0 10.668 16.667999 22.667999 25.992001 29.268 34.584 43.248001 48.624001 51.911999 57.911999 63.911999 69.912003 75.912003 81.912003 84.912003 90.912003 96.912003 102.912 108.912 114.912 136.248 142.248 148.248 151.248 157.248 160.248 178.548 184.548 190.548 193.548 199.548 202.548"
                     y="138.49998"
                     id="tspan1003">MobileNet_v2_0.75_12863.2 %85.3 %</tspan>
                </text>
              </g>
            </g>
          </g>
        </g>
      </g>
    </g>
  </g>
</svg>
